<svg width="24" height="20" viewBox="0 0 24 20" fill="none" xmlns="http://www.w3.org/2000/svg">
<path d="M24 2.55899C23.1167 2.9504 22.1689 3.21585 21.1731 3.33436C22.1899 2.72546 22.9682 1.75966 23.3371 0.612363C22.3833 1.17625 21.3305 1.5857 20.2087 1.80766C19.3104 0.849343 18.0326 0.252441 16.6154 0.252441C13.8964 0.252441 11.6918 2.45703 11.6918 5.17452C11.6918 5.55993 11.7353 5.93636 11.8193 6.29632C7.72807 6.09083 4.10026 4.13071 1.67222 1.15225C1.24779 1.87813 1.00634 2.72393 1.00634 3.62679C1.00634 5.33499 1.87618 6.8422 3.19595 7.72401C2.38908 7.69703 1.63022 7.47507 0.965866 7.10613V7.16762C0.965866 9.55216 2.66355 11.5423 4.91461 11.9952C4.50218 12.1062 4.06728 12.1677 3.61736 12.1677C3.29944 12.1677 2.99199 12.1362 2.69053 12.0762C3.3174 14.0333 5.13508 15.4566 7.28869 15.4956C5.6045 16.8153 3.48089 17.5997 1.17434 17.5997C0.776924 17.5997 0.385473 17.5757 6.10352e-05 17.5322C2.17916 18.9315 4.76618 19.7473 7.54666 19.7473C16.6034 19.7473 21.554 12.2457 21.554 5.73993L21.5375 5.10256C22.5048 4.41264 23.3417 3.54581 24 2.55899Z" fill="#A3A3A3"/>
</svg>
